{
  "accessors": [
    {
      "bufferView": 2,
      "componentType": 5126,
      "count": 65532,
      "max": [
        2.946509599685669,
        -3.1681809425354004,
        3.684516668319702
      ],
      "min": [
        1.352004885673523,
        -7.450821876525879,
        -4.358197212219238
      ],
      "type": "VEC3"
    },
    {
      "bufferView": 2,
      "byteOffset": 786384,
      "componentType": 5126,
      "count": 65532,
      "max": [
        0.9999854564666748,
        0.9999896883964539,
        0.9999975562095642
      ],
      "min": [
        -0.9999998807907104,
        -0.9999780058860779,
        -0.9999951124191284
      ],
      "type": "VEC3"
    },
    {
      "bufferView": 1,
      "componentType": 5126,
      "count": 65532,
      "max": [
        0.9999744296073914,
        1.0
      ],
      "min": [
        3.7255187635309994e-05,
        0.0
      ],
      "type": "VEC2"
    },
    {
      "bufferView": 0,
      "componentType": 5125,
      "count": 330549,
      "type": "SCALAR"
    },
    {
      "bufferView": 2,
      "byteOffset": 1572768,
      "componentType": 5126,
      "count": 65532,
      "max": [
        2.9367635250091553,
        -3.150352716445923,
        3.7492284774780273
      ],
      "min": [
        1.3518760204315186,
        -7.411953449249268,
        -4.3138628005981445
      ],
      "type": "VEC3"
    },
    {
      "bufferView": 2,
      "byteOffset": 2359152,
      "componentType": 5126,
      "count": 65532,
      "max": [
        0.9999983310699463,
        0.999999463558197,
        0.9999895691871643
      ],
      "min": [
        -1.0,
        -0.9999975562095642,
        -0.9999305605888367
      ],
      "type": "VEC3"
    },
    {
      "bufferView": 1,
      "byteOffset": 524256,
      "componentType": 5126,
      "count": 65532,
      "max": [
        0.9990109801292419,
        0.9998746514320374
      ],
      "min": [
        0.0,
        0.0
      ],
      "type": "VEC2"
    },
    {
      "bufferView": 0,
      "byteOffset": 1322196,
      "componentType": 5125,
      "count": 341583,
      "type": "SCALAR"
    },
    {
      "bufferView": 2,
      "byteOffset": 3145536,
      "componentType": 5126,
      "count": 56361,
      "max": [
        2.946031093597412,
        -3.2342066764831543,
        3.1981115341186523
      ],
      "min": [
        1.3519020080566406,
        -7.4494171142578125,
        -4.449292182922363
      ],
      "type": "VEC3"
    },
    {
      "bufferView": 2,
      "byteOffset": 3821868,
      "componentType": 5126,
      "count": 56361,
      "max": [
        0.9999956488609314,
        1.0,
        0.999997615814209
      ],
      "min": [
        -1.0,
        -1.0,
        -0.9999977350234985
      ],
      "type": "VEC3"
    },
    {
      "bufferView": 1,
      "byteOffset": 1048512,
      "componentType": 5126,
      "count": 56361,
      "max": [
        0.9999494552612305,
        1.0
      ],
      "min": [
        7.747615745756775e-05,
        1.3074793514533667e-06
      ],
      "type": "VEC2"
    },
    {
      "bufferView": 0,
      "byteOffset": 2688528,
      "componentType": 5125,
      "count": 254007,
      "type": "SCALAR"
    },
    {
      "bufferView": 2,
      "byteOffset": 4498200,
      "componentType": 5126,
      "count": 65532,
      "max": [
        2.929931402206421,
        -3.168574810028076,
        3.6877715587615967
      ],
      "min": [
        1.3606033325195313,
        -7.450972080230713,
        -4.361692428588867
      ],
      "type": "VEC3"
    },
    {
      "bufferView": 2,
      "byteOffset": 5284584,
      "componentType": 5126,
      "count": 65532,
      "max": [
        0.9999895691871643,
        1.0,
        0.9999904036521912
      ],
      "min": [
        -1.0,
        -0.9999713897705078,
        -0.9999976754188538
      ],
      "type": "VEC3"
    },
    {
      "bufferView": 1,
      "byteOffset": 1499400,
      "componentType": 5126,
      "count": 65532,
      "max": [
        1.0,
        1.0
      ],
      "min": [
        0.0,
        0.0
      ],
      "type": "VEC2"
    },
    {
      "bufferView": 0,
      "byteOffset": 3704556,
      "componentType": 5125,
      "count": 322362,
      "type": "SCALAR"
    },
    {
      "bufferView": 2,
      "byteOffset": 6070968,
      "componentType": 5126,
      "count": 65532,
      "max": [
        2.920628547668457,
        -5.123749256134033,
        3.7976601123809814
      ],
      "min": [
        1.354619026184082,
        -7.398316383361816,
        -4.481714248657227
      ],
      "type": "VEC3"
    },
    {
      "bufferView": 2,
      "byteOffset": 6857352,
      "componentType": 5126,
      "count": 65532,
      "max": [
        0.9999958872795105,
        0.9999927282333374,
        0.9999959468841553
      ],
      "min": [
        -1.0,
        -0.9997074007987976,
        -0.9999974966049194
      ],
      "type": "VEC3"
    },
    {
      "bufferView": 1,
      "byteOffset": 2023656,
      "componentType": 5126,
      "count": 65532,
      "max": [
        0.9995419383049011,
        1.0
      ],
      "min": [
        0.00022097633336670697,
        0.0
      ],
      "type": "VEC2"
    },
    {
      "bufferView": 0,
      "byteOffset": 4994004,
      "componentType": 5125,
      "count": 334491,
      "type": "SCALAR"
    },
    {
      "bufferView": 2,
      "byteOffset": 7643736,
      "componentType": 5126,
      "count": 53349,
      "max": [
        2.9421744346618652,
        -3.358076572418213,
        3.0874364376068115
      ],
      "min": [
        1.3654390573501587,
        -7.450821876525879,
        -2.6504030227661133
      ],
      "type": "VEC3"
    },
    {
      "bufferView": 2,
      "byteOffset": 8283924,
      "componentType": 5126,
      "count": 53349,
      "max": [
        0.9999912977218628,
        1.0,
        0.9999998807907104
      ],
      "min": [
        -0.9999960064888,
        -0.999971866607666,
        -0.9999881982803345
      ],
      "type": "VEC3"
    },
    {
      "bufferView": 1,
      "byteOffset": 2547912,
      "componentType": 5126,
      "count": 53349,
      "max": [
        0.9999328255653381,
        1.0
      ],
      "min": [
        9.365135156258475e-06,
        0.0
      ],
      "type": "VEC2"
    },
    {
      "bufferView": 0,
      "byteOffset": 6331968,
      "componentType": 5125,
      "count": 250398,
      "type": "SCALAR"
    },
    {
      "bufferView": 2,
      "byteOffset": 8924112,
      "componentType": 5126,
      "count": 65532,
      "max": [
        2.928287982940674,
        -3.168156623840332,
        3.3450865745544434
      ],
      "min": [
        1.3528423309326172,
        -7.451266765594482,
        -4.366541862487793
      ],
      "type": "VEC3"
    },
    {
      "bufferView": 2,
      "byteOffset": 9710496,
      "componentType": 5126,
      "count": 65532,
      "max": [
        0.999998152256012,
        0.9999968409538269,
        0.9999989867210388
      ],
      "min": [
        -0.9999915957450867,
        -0.999985933303833,
        -0.9999976754188538
      ],
      "type": "VEC3"
    },
    {
      "bufferView": 1,
      "byteOffset": 2974704,
      "componentType": 5126,
      "count": 65532,
      "max": [
        0.999731183052063,
        1.0
      ],
      "min": [
        0.0,
        0.0
      ],
      "type": "VEC2"
    },
    {
      "bufferView": 0,
      "byteOffset": 7333560,
      "componentType": 5125,
      "count": 314727,
      "type": "SCALAR"
    },
    {
      "bufferView": 2,
      "byteOffset": 10496880,
      "componentType": 5126,
      "count": 65532,
      "max": [
        2.9231011867523193,
        -3.1115896701812744,
        3.7248449325561523
      ],
      "min": [
        1.3538434505462646,
        -7.456639766693115,
        -4.451787948608398
      ],
      "type": "VEC3"
    },
    {
      "bufferView": 2,
      "byteOffset": 11283264,
      "componentType": 5126,
      "count": 65532,
      "max": [
        0.9999956488609314,
        0.9999994039535522,
        0.9999998211860657
      ],
      "min": [
        -0.9999976754188538,
        -0.99998539686203,
        -0.9999701976776123
      ],
      "type": "VEC3"
    },
    {
      "bufferView": 1,
      "byteOffset": 3498960,
      "componentType": 5126,
      "count": 65532,
      "max": [
        0.9999510049819946,
        0.9999850988388062
      ],
      "min": [
        0.0009346529841423035,
        4.3049360101576895e-05
      ],
      "type": "VEC2"
    },
    {
      "bufferView": 0,
      "byteOffset": 8592468,
      "componentType": 5125,
      "count": 323535,
      "type": "SCALAR"
    },
    {
      "bufferView": 2,
      "byteOffset": 12069648,
      "componentType": 5126,
      "count": 65532,
      "max": [
        2.9426326751708984,
        -3.4967427253723145,
        2.405627727508545
      ],
      "min": [
        1.3521775007247925,
        -7.4316325187683105,
        -4.359878063201904
      ],
      "type": "VEC3"
    },
    {
      "bufferView": 2,
      "byteOffset": 12856032,
      "componentType": 5126,
      "count": 65532,
      "max": [
        0.9999973177909851,
        1.0,
        0.9999998807907104
      ],
      "min": [
        -0.9999986886978149,
        -0.9999999403953552,
        -0.9999457597732544
      ],
      "type": "VEC3"
    },
    {
      "bufferView": 1,
      "byteOffset": 4023216,
      "componentType": 5126,
      "count": 65532,
      "max": [
        1.0,
        1.0
      ],
      "min": [
        0.0,
        2.7199951091461116e-06
      ],
      "type": "VEC2"
    },
    {
      "bufferView": 0,
      "byteOffset": 9886608,
      "componentType": 5125,
      "count": 310593,
      "type": "SCALAR"
    },
    {
      "bufferView": 2,
      "byteOffset": 13642416,
      "componentType": 5126,
      "count": 9067,
      "max": [
        2.9400527477264404,
        -3.211561918258667,
        2.374257802963257
      ],
      "min": [
        1.7853721380233765,
        -7.453063011169434,
        0.695868730545044
      ],
      "type": "VEC3"
    },
    {
      "bufferView": 2,
      "byteOffset": 13751220,
      "componentType": 5126,
      "count": 9067,
      "max": [
        0.999983549118042,
        0.9992157220840454,
        0.9998942017555237
      ],
      "min": [
        -0.999978244304657,
        -0.9999203681945801,
        -0.9999579191207886
      ],
      "type": "VEC3"
    },
    {
      "bufferView": 1,
      "byteOffset": 4547472,
      "componentType": 5126,
      "count": 9067,
      "max": [
        0.9998339414596558,
        0.9999948143959045
      ],
      "min": [
        0.0011914930073544383,
        0.0
      ],
      "type": "VEC2"
    },
    {
      "bufferView": 0,
      "byteOffset": 11128980,
      "componentType": 5125,
      "count": 38730,
      "type": "SCALAR"
    },
    {
      "bufferView": 2,
      "byteOffset": 13860024,
      "componentType": 5126,
      "count": 65532,
      "max": [
        2.946509599685669,
        -3.16414737701416,
        3.6877665519714355
      ],
      "min": [
        1.3624236583709717,
        -7.45767879486084,
        -4.207329273223877
      ],
      "type": "VEC3"
    },
    {
      "bufferView": 2,
      "byteOffset": 14646408,
      "componentType": 5126,
      "count": 65532,
      "max": [
        0.9999867081642151,
        0.9999944567680359,
        0.9999873638153076
      ],
      "min": [
        -1.0,
        -0.9999975562095642,
        -0.9998788237571716
      ],
      "type": "VEC3"
    },
    {
      "bufferView": 1,
      "byteOffset": 4620008,
      "componentType": 5126,
      "count": 65532,
      "max": [
        0.9988700747489929,
        1.0
      ],
      "min": [
        0.00014341389760375023,
        0.0
      ],
      "type": "VEC2"
    },
    {
      "bufferView": 0,
      "byteOffset": 11283900,
      "componentType": 5125,
      "count": 311583,
      "type": "SCALAR"
    },
    {
      "bufferView": 2,
      "byteOffset": 15432792,
      "componentType": 5126,
      "count": 65532,
      "max": [
        2.923856258392334,
        -3.2359297275543213,
        3.796276330947876
      ],
      "min": [
        1.375261664390564,
        -7.45388650894165,
        -4.3062543869018555
      ],
      "type": "VEC3"
    },
    {
      "bufferView": 2,
      "byteOffset": 16219176,
      "componentType": 5126,
      "count": 65532,
      "max": [
        0.9999943971633911,
        0.9999980330467224,
        0.9999947547912598
      ],
      "min": [
        -0.9999975562095642,
        -0.999971866607666,
        -0.9999977350234985
      ],
      "type": "VEC3"
    },
    {
      "bufferView": 1,
      "byteOffset": 5144264,
      "componentType": 5126,
      "count": 65532,
      "max": [
        1.0,
        0.9999706149101257
      ],
      "min": [
        0.0,
        3.3770076697692275e-05
      ],
      "type": "VEC2"
    },
    {
      "bufferView": 0,
      "byteOffset": 12530232,
      "componentType": 5125,
      "count": 326379,
      "type": "SCALAR"
    },
    {
      "bufferView": 2,
      "byteOffset": 17005560,
      "componentType": 5126,
      "count": 65532,
      "max": [
        2.9461002349853516,
        -3.110391616821289,
        1.7891442775726318
      ],
      "min": [
        1.362518310546875,
        -7.436777114868164,
        -4.482722759246826
      ],
      "type": "VEC3"
    },
    {
      "bufferView": 2,
      "byteOffset": 17791944,
      "componentType": 5126,
      "count": 65532,
      "max": [
        0.9999933838844299,
        1.0,
        0.9999960064888
      ],
      "min": [
        -1.0,
        -0.9999849200248718,
        -0.9999959468841553
      ],
      "type": "VEC3"
    },
    {
      "bufferView": 1,
      "byteOffset": 5668520,
      "componentType": 5126,
      "count": 65532,
      "max": [
        0.9990651607513428,
        1.0
      ],
      "min": [
        0.0009956459980458021,
        0.0001080646543414332
      ],
      "type": "VEC2"
    },
    {
      "bufferView": 0,
      "byteOffset": 13835748,
      "componentType": 5125,
      "count": 306849,
      "type": "SCALAR"
    },
    {
      "bufferView": 2,
      "byteOffset": 18578328,
      "componentType": 5126,
      "count": 21051,
      "max": [
        2.9389872550964355,
        -4.035788059234619,
        2.4200968742370605
      ],
      "min": [
        1.4120067358016968,
        -6.780733108520508,
        0.6500170230865479
      ],
      "type": "VEC3"
    },
    {
      "bufferView": 2,
      "byteOffset": 18830940,
      "componentType": 5126,
      "count": 21051,
      "max": [
        0.999983549118042,
        0.9999948143959045,
        0.999970018863678
      ],
      "min": [
        -0.999927818775177,
        -0.9997724890708923,
        -0.999991774559021
      ],
      "type": "VEC3"
    },
    {
      "bufferView": 1,
      "byteOffset": 6192776,
      "componentType": 5126,
      "count": 21051,
      "max": [
        0.9990047216415405,
        1.0
      ],
      "min": [
        0.0007069382118061185,
        3.3405725844204426e-05
      ],
      "type": "VEC2"
    },
    {
      "bufferView": 0,
      "byteOffset": 15063144,
      "componentType": 5125,
      "count": 88710,
      "type": "SCALAR"
    }
  ],
  "asset": {
    "extras": {
      "author": "SWEDISH NATIONAL MARITIME AND TRANSPORT MUSEUMS (https://sketchfab.com/maritima)",
      "license": "CC-BY-4.0 (http://creativecommons.org/licenses/by/4.0/)",
      "source": "https://sketchfab.com/3d-models/baltica-1940-019f9fde117144439741561d833be605",
      "title": "Baltica (1940)"
    },
    "generator": "Sketchfab-15.25.0",
    "version": "2.0"
  },
  "bufferViews": [
    {
      "buffer": 0,
      "byteLength": 15417984,
      "name": "floatBufferViews",
      "target": 34963
    },
    {
      "buffer": 0,
      "byteLength": 6361184,
      "byteOffset": 15417984,
      "byteStride": 8,
      "name": "floatBufferViews",
      "target": 34962
    },
    {
      "buffer": 0,
      "byteLength": 19083552,
      "byteOffset": 21779168,
      "byteStride": 12,
      "name": "floatBufferViews",
      "target": 34962
    }
  ],
  "buffers": [
    {
      "byteLength": 40862720,
      "uri": "scene.bin"
    }
  ],
  "extensionsUsed": [
    "KHR_materials_unlit"
  ],
  "images": [
    {
      "uri": "textures/material0.001_baseColor.jpeg"
    },
    {
      "uri": "textures/material1.001_baseColor.jpeg"
    },
    {
      "uri": "textures/material2.001_baseColor.jpeg"
    },
    {
      "uri": "textures/material3.001_baseColor.jpeg"
    }
  ],
  "materials": [
    {
      "doubleSided": true,
      "extensions": {
        "KHR_materials_unlit": {}
      },
      "name": "material0.001",
      "pbrMetallicRoughness": {
        "baseColorTexture": {
          "index": 0
        },
        "metallicFactor": 0.0
      }
    },
    {
      "doubleSided": true,
      "extensions": {
        "KHR_materials_unlit": {}
      },
      "name": "material1.001",
      "pbrMetallicRoughness": {
        "baseColorTexture": {
          "index": 1
        },
        "metallicFactor": 0.0
      }
    },
    {
      "doubleSided": true,
      "extensions": {
        "KHR_materials_unlit": {}
      },
      "name": "material2.001",
      "pbrMetallicRoughness": {
        "baseColorTexture": {
          "index": 2
        },
        "metallicFactor": 0.0
      }
    },
    {
      "doubleSided": true,
      "extensions": {
        "KHR_materials_unlit": {}
      },
      "name": "material3.001",
      "pbrMetallicRoughness": {
        "baseColorTexture": {
          "index": 3
        },
        "metallicFactor": 0.0
      }
    }
  ],
  "meshes": [
    {
      "name": "Object_0",
      "primitives": [
        {
          "attributes": {
            "NORMAL": 1,
            "POSITION": 0,
            "TEXCOORD_0": 2
          },
          "indices": 3,
          "material": 0,
          "mode": 4
        }
      ]
    },
    {
      "name": "Object_1",
      "primitives": [
        {
          "attributes": {
            "NORMAL": 5,
            "POSITION": 4,
            "TEXCOORD_0": 6
          },
          "indices": 7,
          "material": 0,
          "mode": 4
        }
      ]
    },
    {
      "name": "Object_2",
      "primitives": [
        {
          "attributes": {
            "NORMAL": 9,
            "POSITION": 8,
            "TEXCOORD_0": 10
          },
          "indices": 11,
          "material": 0,
          "mode": 4
        }
      ]
    },
    {
      "name": "Object_3",
      "primitives": [
        {
          "attributes": {
            "NORMAL": 13,
            "POSITION": 12,
            "TEXCOORD_0": 14
          },
          "indices": 15,
          "material": 1,
          "mode": 4
        }
      ]
    },
    {
      "name": "Object_4",
      "primitives": [
        {
          "attributes": {
            "NORMAL": 17,
            "POSITION": 16,
            "TEXCOORD_0": 18
          },
          "indices": 19,
          "material": 1,
          "mode": 4
        }
      ]
    },
    {
      "name": "Object_5",
      "primitives": [
        {
          "attributes": {
            "NORMAL": 21,
            "POSITION": 20,
            "TEXCOORD_0": 22
          },
          "indices": 23,
          "material": 1,
          "mode": 4
        }
      ]
    },
    {
      "name": "Object_6",
      "primitives": [
        {
          "attributes": {
            "NORMAL": 25,
            "POSITION": 24,
            "TEXCOORD_0": 26
          },
          "indices": 27,
          "material": 2,
          "mode": 4
        }
      ]
    },
    {
      "name": "Object_7",
      "primitives": [
        {
          "attributes": {
            "NORMAL": 29,
            "POSITION": 28,
            "TEXCOORD_0": 30
          },
          "indices": 31,
          "material": 2,
          "mode": 4
        }
      ]
    },
    {
      "name": "Object_8",
      "primitives": [
        {
          "attributes": {
            "NORMAL": 33,
            "POSITION": 32,
            "TEXCOORD_0": 34
          },
          "indices": 35,
          "material": 2,
          "mode": 4
        }
      ]
    },
    {
      "name": "Object_9",
      "primitives": [
        {
          "attributes": {
            "NORMAL": 37,
            "POSITION": 36,
            "TEXCOORD_0": 38
          },
          "indices": 39,
          "material": 2,
          "mode": 4
        }
      ]
    },
    {
      "name": "Object_10",
      "primitives": [
        {
          "attributes": {
            "NORMAL": 41,
            "POSITION": 40,
            "TEXCOORD_0": 42
          },
          "indices": 43,
          "material": 3,
          "mode": 4
        }
      ]
    },
    {
      "name": "Object_11",
      "primitives": [
        {
          "attributes": {
            "NORMAL": 45,
            "POSITION": 44,
            "TEXCOORD_0": 46
          },
          "indices": 47,
          "material": 3,
          "mode": 4
        }
      ]
    },
    {
      "name": "Object_12",
      "primitives": [
        {
          "attributes": {
            "NORMAL": 49,
            "POSITION": 48,
            "TEXCOORD_0": 50
          },
          "indices": 51,
          "material": 3,
          "mode": 4
        }
      ]
    },
    {
      "name": "Object_13",
      "primitives": [
        {
          "attributes": {
            "NORMAL": 53,
            "POSITION": 52,
            "TEXCOORD_0": 54
          },
          "indices": 55,
          "material": 3,
          "mode": 4
        }
      ]
    }
  ],
  "nodes": [
    {
      "children": [
        1
      ],
      "matrix": [
        0.741349000429814,
        0.09460778567265216,
        0.008873218223377631,
        0.0,
        0.010320384919180192,
        -0.010785181466847094,
        -0.7472649307715784,
        0.0,
        -0.09446087306837825,
        0.7413236518521984,
        -0.012004020237223635,
        0.0,
        0.0,
        0.0,
        0.0,
        1.0
      ],
      "name": "Sketchfab_model"
    },
    {
      "children": [
        2
      ],
      "name": "root"
    },
    {
      "children": [
        3
      ],
      "matrix": [
        1.0,
        0.0,
        0.0,
        0.0,
        0.0,
        2.220446049250313e-16,
        1.0,
        0.0,
        0.0,
        -1.0,
        2.220446049250313e-16,
        0.0,
        0.0,
        0.0,
        0.0,
        1.0
      ],
      "name": "GLTF_SceneRootNode"
    },
    {
      "children": [
        4,
        5,
        6,
        7,
        8,
        9,
        10,
        11,
        12,
        13,
        14,
        15,
        16,
        17
      ],
      "name": "Model.001_1"
    },
    {
      "mesh": 0,
      "name": "Object_4"
    },
    {
      "mesh": 1,
      "name": "Object_5"
    },
    {
      "mesh": 2,
      "name": "Object_6"
    },
    {
      "mesh": 3,
      "name": "Object_7"
    },
    {
      "mesh": 4,
      "name": "Object_8"
    },
    {
      "mesh": 5,
      "name": "Object_9"
    },
    {
      "mesh": 6,
      "name": "Object_10"
    },
    {
      "mesh": 7,
      "name": "Object_11"
    },
    {
      "mesh": 8,
      "name": "Object_12"
    },
    {
      "mesh": 9,
      "name": "Object_13"
    },
    {
      "mesh": 10,
      "name": "Object_14"
    },
    {
      "mesh": 11,
      "name": "Object_15"
    },
    {
      "mesh": 12,
      "name": "Object_16"
    },
    {
      "mesh": 13,
      "name": "Object_17"
    }
  ],
  "samplers": [
    {
      "magFilter": 9729,
      "minFilter": 9987,
      "wrapS": 10497,
      "wrapT": 10497
    }
  ],
  "scene": 0,
  "scenes": [
    {
      "name": "Sketchfab_Scene",
      "nodes": [
        0
      ]
    }
  ],
  "textures": [
    {
      "sampler": 0,
      "source": 0
    },
    {
      "sampler": 0,
      "source": 1
    },
    {
      "sampler": 0,
      "source": 2
    },
    {
      "sampler": 0,
      "source": 3
    }
  ]
}
